<svg id="Layer_2" data-name="Layer 2" xmlns="http://www.w3.org/2000/svg" viewBox="0 0 198.43 198.43"><defs><style>.cls-1,.cls-2{fill:none;stroke:#231f20;stroke-miterlimit:10;}.cls-1{stroke-width:2px;}</style></defs><polyline class="cls-1" points="26.05 199.19 26.05 141.99 176.07 141.99 176.07 199.19"/><line class="cls-1" x1="40.68" y1="197.64" x2="40.68" y2="142.42"/><line class="cls-1" x1="161.44" y1="198.87" x2="161.44" y2="142.25"/><path class="cls-1" d="M128.05,160.75a28.32,28.32,0,0,0-53.31,0Z"/><line class="cls-1" x1="128.05" y1="160.75" x2="128.05" y2="199.19"/><line class="cls-1" x1="74.74" y1="160.75" x2="74.74" y2="198.87"/><line class="cls-1" x1="74.74" y1="165.32" x2="128.05" y2="165.32"/><line class="cls-1" x1="82.46" y1="165.32" x2="82.46" y2="199.19"/><line class="cls-1" x1="119.66" y1="165.32" x2="119.66" y2="198.87"/><path class="cls-1" d="M119.94,172.24a28.3,28.3,0,0,0-37.48.35"/><polyline class="cls-1" points="82.46 174.78 96.21 174.78 96.21 199.19"/><polyline class="cls-1" points="119.66 174.78 106.26 174.78 106.26 198.87"/><line class="cls-2" x1="87.51" y1="168.96" x2="87.51" y2="174.79"/><line class="cls-2" x1="91.93" y1="166.95" x2="91.93" y2="174.79"/><line class="cls-2" x1="96.21" y1="165.8" x2="96.21" y2="174.79"/><line class="cls-2" x1="101.4" y1="165.32" x2="101.4" y2="197.21"/><line class="cls-2" x1="106.26" y1="165.8" x2="106.26" y2="174.79"/><line class="cls-2" x1="110.86" y1="166.95" x2="110.86" y2="174.79"/><line class="cls-2" x1="115.27" y1="168.96" x2="115.27" y2="174.79"/><polyline class="cls-1" points="12.88 171.29 12.88 141.99 26.05 141.99 26.05 132.71 176.07 132.71 176.07 141.99 190.24 141.99 190.24 199.19"/><line class="cls-1" x1="63.7" y1="132.71" x2="63.7" y2="141.99"/><line class="cls-1" x1="138.61" y1="132.71" x2="138.61" y2="141.99"/><path class="cls-1" d="M128.74,132.71c-4.09-13.48-15-23.13-27.84-23.13s-23.75,9.64-27.84,23.12Z"/><path class="cls-1" d="M176.21,132.71a25,25,0,0,0-47.15,0Z"/><path class="cls-1" d="M73.06,132.71a25,25,0,0,0-47.15,0Z"/><rect class="cls-2" x="33.47" y="135.03" width="4.64" height="4.64"/><rect class="cls-2" x="42.79" y="135.03" width="4.64" height="4.64"/><rect class="cls-2" x="52.12" y="135.03" width="4.64" height="4.64"/><rect class="cls-2" x="70.74" y="135.03" width="4.64" height="4.64"/><rect class="cls-2" x="80.06" y="135.03" width="4.64" height="4.64"/><rect class="cls-2" x="89.39" y="135.03" width="4.64" height="4.64"/><rect class="cls-2" x="98.31" y="135.03" width="4.64" height="4.64"/><rect class="cls-2" x="107.63" y="135.03" width="4.64" height="4.64"/><rect class="cls-2" x="116.96" y="135.03" width="4.64" height="4.64"/><rect class="cls-2" x="126.74" y="135.03" width="4.64" height="4.64"/><rect class="cls-2" x="146.03" y="135.03" width="4.64" height="4.64"/><rect class="cls-2" x="155.35" y="135.03" width="4.64" height="4.64"/><rect class="cls-2" x="164.68" y="135.03" width="4.64" height="4.64"/><line class="cls-2" x1="28.13" y1="128.07" x2="70.84" y2="128.07"/><line class="cls-2" x1="74.74" y1="128.07" x2="126.74" y2="128.07"/><line class="cls-2" x1="131.28" y1="128.07" x2="174.18" y2="128.07"/><rect class="cls-2" x="133.75" y="146.86" width="9.14" height="13.89"/><rect class="cls-2" x="148.35" y="146.86" width="9.32" height="13.89"/><rect class="cls-2" x="133.75" y="164.92" width="9.14" height="13.89"/><rect class="cls-2" x="148.35" y="164.92" width="9.32" height="13.89"/><rect class="cls-2" x="133.75" y="183.57" width="9.14" height="13.89"/><rect class="cls-2" x="148.35" y="183.57" width="9.32" height="13.89"/><rect class="cls-2" x="45.75" y="146.27" width="9.14" height="13.89"/><rect class="cls-2" x="60.35" y="146.27" width="9.32" height="13.89"/><rect class="cls-2" x="45.75" y="164.34" width="9.14" height="13.89"/><rect class="cls-2" x="60.35" y="164.34" width="9.32" height="13.89"/><rect class="cls-2" x="45.75" y="182.99" width="9.14" height="13.89"/><rect class="cls-2" x="60.35" y="182.99" width="9.32" height="13.89"/><polyline class="cls-1" points="73.06 132.71 73.06 109.58 128.74 109.58 129.06 132.7"/><polyline class="cls-1" points="73.06 109.58 64.05 109.58 64.05 120.54"/><polyline class="cls-1" points="128.74 109.58 138.61 109.58 138.61 120.15"/><polyline class="cls-1" points="66.12 109.58 66.12 100.38 70.99 100.38 70.99 109.58"/><path class="cls-1" d="M66.11,100.38a2.45,2.45,0,1,1,4.89,0h60.23a2.45,2.45,0,1,1,4.89,0"/><line class="cls-1" x1="68.55" y1="97.93" x2="68.55" y2="93.77"/><polyline class="cls-1" points="131.24 109.58 131.24 100.38 136.11 100.38 136.11 109.58"/><line class="cls-1" x1="133.67" y1="97.93" x2="133.67" y2="93.77"/><line class="cls-1" x1="71" y1="103.95" x2="131.23" y2="103.95"/><path class="cls-1" d="M133.55,97.81a37,37,0,0,0-64.52,0"/><line class="cls-1" x1="101.29" y1="78.91" x2="101.29" y2="67.23"/><polyline class="cls-1" points="14.26 141.99 14.26 132.71 15.8 132.71 23.57 132.71 23.57 141.99"/><polyline class="cls-1" points="15.8 132.71 15.8 123.35 21.86 123.35 21.86 132.4"/><polyline class="cls-1" points="16.39 123.35 16.39 114.14 21.27 114.14 21.27 123.35"/><path class="cls-1" d="M16.38,114.15a2.45,2.45,0,0,1,4.9,0"/><line class="cls-1" x1="18.83" y1="111.7" x2="18.83" y2="107.54"/><polyline class="cls-1" points="178.44 141.63 178.44 132.35 179.98 132.35 187.75 132.35 187.75 141.63"/><polyline class="cls-1" points="179.98 132.35 179.98 122.99 186.04 122.99 186.04 132.04"/><polyline class="cls-1" points="180.57 122.99 180.57 113.79 185.45 113.79 185.45 122.99"/><path class="cls-1" d="M185.46,113.79a2.45,2.45,0,0,0-4.9,0V67.23h-9v57.18"/><line class="cls-1" x1="183.01" y1="111.34" x2="183.01" y2="107.19"/><polyline class="cls-1" points="171.59 67.23 171.59 62.44 180.57 62.44 180.57 67.77"/><polyline class="cls-1" points="171.59 62.44 168.63 62.44 168.63 57.88 183.2 57.88 183.2 62.44 180.81 62.44"/><polyline class="cls-1" points="171.59 57.88 171.59 43.74 180.57 43.74 180.57 57.88"/><polyline class="cls-1" points="171.59 43.74 171.59 39.34 180.57 39.34 180.57 43.74"/><polyline class="cls-1" points="171.59 39.34 176.08 25.23 180.57 39.34"/><polyline class="cls-1" points="176.21 25.2 176.21 22.81 176.21 20.43"/><polyline class="cls-1" points="30.69 124.61 30.69 72.01 21.71 72.01 21.86 123.35"/><polyline class="cls-1" points="21.71 72.01 21.71 67.22 30.7 67.22 30.7 72.55"/><polyline class="cls-1" points="21.71 67.22 18.76 67.22 18.76 62.65 33.33 62.65 33.33 67.22 30.94 67.22"/><polyline class="cls-1" points="21.71 62.65 21.71 48.51 30.7 48.51 30.7 62.65"/><polyline class="cls-1" points="21.71 48.51 21.71 44.11 30.7 44.11 30.7 48.51"/><polyline class="cls-1" points="21.71 44.11 26.21 30.01 30.7 44.11"/><line class="cls-1" x1="12.88" y1="171.29" x2="12.88" y2="198.43"/><polyline class="cls-1" points="26.05 29.97 26.05 27.58 26.05 25.2"/></svg>
