<svg id="Layer_2" data-name="Layer 2" xmlns="http://www.w3.org/2000/svg" viewBox="0 0 198.43 198.43"><defs><style>.cls-1,.cls-2,.cls-4,.cls-5{fill:none;}.cls-1,.cls-2,.cls-3,.cls-4,.cls-5{stroke:#231f20;}.cls-1,.cls-2,.cls-3,.cls-4{stroke-miterlimit:10;}.cls-2,.cls-5{stroke-width:2px;}.cls-3{fill:#fff;}.cls-4{stroke-width:0.5px;}.cls-5{stroke-linejoin:bevel;}</style></defs><path class="cls-1" d="M70.33,128A34.22,34.22,0,0,1,66.26,131"/><path class="cls-1" d="M78.48,117.3a35.53,35.53,0,0,1-5,7.52"/><path class="cls-1" d="M78.77,116.71l0,.11"/><path class="cls-1" d="M78.87,116.52a1.74,1.74,0,0,0-.1.19"/><path class="cls-1" d="M82.47,102a36.07,36.07,0,0,1-2.25,11.35"/><path class="cls-1" d="M80.66,89.47a35.73,35.73,0,0,1,1.49,6.3c.13,1,.23,1.91.28,2.86"/><path class="cls-1" d="M73.77,77.53a35.49,35.49,0,0,1,5.13,7.66"/><path class="cls-1" d="M73.32,77l.12.12"/><path class="cls-1" d="M64,69.55a30,30,0,0,1,5.59,3.91"/><path class="cls-1" d="M50,65.3a37.89,37.89,0,0,1,7.65,1.56"/><path class="cls-1" d="M34.86,66.82a38.27,38.27,0,0,1,7.89-1.56"/><path class="cls-1" d="M22.31,73.76a33,33,0,0,1,6-4.15l.75-.4"/><path class="cls-1" d="M13.59,85.61a33.77,33.77,0,0,1,5.59-8.76"/><path class="cls-1" d="M10.48,99.2a37.11,37.11,0,0,1,1.84-10.3"/><path class="cls-1" d="M12.43,112.69a38,38,0,0,1-1.93-10.16"/><path class="cls-1" d="M19.4,124.82a35.2,35.2,0,0,1-5.75-9"/><line class="cls-1" x1="46.39" y1="66.58" x2="46.39" y2="128.6"/><line class="cls-1" x1="14.34" y1="100.87" x2="78.65" y2="100.87"/><line class="cls-1" x1="69.83" y1="124.3" x2="22.78" y2="77.25"/><line class="cls-1" x1="69.89" y1="77.37" x2="22.7" y2="124.56"/><path class="cls-1" d="M42.12,65.41a1.24,1.24,0,0,1-.2-.66c0-1.21,2-2.19,4.47-2.19s4.47,1,4.47,2.19-2,2.2-4.47,2.2c-2,0-3.7-.65-4.27-1.54"/><path class="cls-1" d="M73.77,77.33a8.17,8.17,0,0,1-1.84.2c-2.47,0-4.48-1-4.48-2.2s2-2.2,4.48-2.2,4.47,1,4.47,2.2c0,.89-1.08,1.66-2.63,2"/><ellipse class="cls-1" cx="82.5" cy="100.35" rx="4.47" ry="2.2"/><ellipse class="cls-1" cx="20.86" cy="126.4" rx="4.47" ry="2.2"/><ellipse class="cls-1" cx="10.28" cy="100.87" rx="4.47" ry="2.2"/><ellipse class="cls-1" cx="20.86" cy="75.33" rx="4.47" ry="2.2"/><path class="cls-1" d="M57.34,66.82a7.18,7.18,0,0,1,3.25-.69c2.47,0,4.47,1,4.47,2.2s-2,2.19-4.47,2.19-4.47-1-4.47-2.19c0-.59.46-1.12,1.22-1.51"/><path class="cls-1" d="M78.9,85.19a8.93,8.93,0,0,1,1.4-.11c2.47,0,4.48,1,4.48,2.2s-1.82,2.1-4.12,2.19"/><path class="cls-1" d="M80.66,89.47H80.3c-2.47,0-4.47-1-4.47-2.2,0-1,1.28-1.8,3.07-2.09"/><ellipse class="cls-1" cx="80.3" cy="115.04" rx="4.47" ry="2.2"/><ellipse class="cls-1" cx="71.93" cy="126.4" rx="4.47" ry="2.2"/><ellipse class="cls-1" cx="11.91" cy="114.37" rx="4.47" ry="2.2"/><path class="cls-1" d="M28.65,69.42a1.46,1.46,0,0,1-.59-1.09c0-1.22,2-2.2,4.47-2.2s4.47,1,4.47,2.2-2,2.19-4.47,2.19a6.25,6.25,0,0,1-3.88-1.1"/><ellipse class="cls-1" cx="12.82" cy="87.28" rx="4.47" ry="2.2"/><line class="cls-2" x1="91.55" y1="49.37" x2="140.96" y2="49.37"/><path class="cls-2" d="M96.11,49.37S99.38,21.14,104,12.8"/><path class="cls-2" d="M104.36,49.37s.81-30.86,8-43.78"/><path class="cls-2" d="M112.34,49.37s1.58-36.1,8-43.78"/><path class="cls-2" d="M120.31,49.37s.84-34.94,6-39.56"/><path class="cls-2" d="M128.36,49.37s-.52-24,2.95-32.22"/><path class="cls-2" d="M136.21,49.81s-1.14-13.37.44-18.73"/><path class="cls-2" d="M128.29,49.37s-.82-30.86-8-43.78"/><rect class="cls-1" x="136.65" y="167.2" width="9.41" height="7.21"/><rect class="cls-1" x="148" y="167.27" width="9.41" height="7.21"/><rect class="cls-1" x="159.26" y="167.27" width="9.41" height="7.21"/><path class="cls-3" d="M170.81,167.54h7.68s3.88,0,3.88,2.6v12.14h-3.88s-1.41-2.78-7.68-2.81Z"/><path class="cls-2" d="M120.3,49.37s-1.58-36.1-8-43.78"/><rect class="cls-1" x="136.65" y="176.68" width="9.41" height="7.21"/><rect class="cls-1" x="148" y="176.49" width="9.41" height="7.21"/><path class="cls-2" d="M112.33,49.37s-.83-34.94-6-39.56"/><path class="cls-4" d="M104.28,49.37s11.21,41.1,42.93,82.6"/><path class="cls-2" d="M101.34,17.15c3.47,8.23,2.94,32.22,2.94,32.22"/><path class="cls-2" d="M148.4,131.85c-.78-38.74-5.48-126.75-32-127S85,93.5,84.15,132.18"/><path class="cls-4" d="M112.34,49.37s9.52,34.61,35.75,72.68"/><circle class="cls-1" cx="131.95" cy="191.4" r="6.5"/><path class="cls-4" d="M120.3,49.37s7.43,27,27.23,59.53"/><path class="cls-4" d="M128.29,49.37S133.42,68,146.53,93"/><path class="cls-4" d="M96.11,47.72s11.53,42,44.16,84.39"/><path class="cls-4" d="M90.44,55.58a276,276,0,0,0,41,76.39"/><path class="cls-4" d="M88.2,63.94a318.3,318.3,0,0,0,36.09,67.91"/><path class="cls-4" d="M86.7,79.64a313.84,313.84,0,0,0,29.55,52.21"/><path class="cls-4" d="M85.67,94a305.33,305.33,0,0,0,22.68,37.82"/><path class="cls-4" d="M85.86,107.1a295,295,0,0,0,15.81,25"/><path class="cls-4" d="M84.46,119.92q3.77,5.94,8,11.93"/><path class="cls-4" d="M128.48,49.47S117.3,90.59,85.67,132.11"/><path class="cls-4" d="M120.41,49.47s-9.52,34.62-35.75,72.68"/><path class="cls-4" d="M112.46,49.47S105,76.47,85.23,109"/><path class="cls-4" d="M104.47,49.47S99.34,68.13,86.23,93.11"/><path class="cls-4" d="M96.23,48.87a197.14,197.14,0,0,1-7.79,21.46"/><path class="cls-4" d="M136.65,47.82s-11.55,41.82-44.21,84"/><path class="cls-4" d="M142.32,55.69a277.16,277.16,0,0,1-40.65,76.42"/><path class="cls-4" d="M144.56,64.05A318.34,318.34,0,0,1,108.47,132"/><path class="cls-4" d="M146.06,79.75A313.9,313.9,0,0,1,116.51,132"/><path class="cls-4" d="M147.09,94.14A306.14,306.14,0,0,1,124.41,132"/><path class="cls-4" d="M150.07,102.41a350.19,350.19,0,0,1-19.85,29.44"/><polyline class="cls-1" points="146.86 139.97 146.86 161.51 131.72 161.51 131.72 139.97 146.86 139.97"/><line class="cls-1" x1="139.25" y1="140.54" x2="139.25" y2="162.09"/><line class="cls-1" x1="131.68" y1="150.74" x2="146.82" y2="150.74"/><path class="cls-4" d="M148.4,116.52c-3,5.08-6.2,10.21-9.59,15.33"/><path class="cls-1" d="M182.37,193.05h2.3V171c0-7.36-7.46-7.55-7.46-7.55H125.32c-7.56,0-7.46,7.55-7.46,7.55v22.07h7.6"/><line class="cls-1" x1="178.26" y1="193.05" x2="182.37" y2="193.05"/><polyline class="cls-2" points="198.03 60.69 144.56 60.69 144.56 68.04 198.03 68.04"/><path class="cls-1" d="M122.93,174.4v-3.63a3.39,3.39,0,0,1,3.69-3.58H134v7.21Z"/><path class="cls-2" d="M198,40.16c-30.58-.12-53.47,20.53-53.47,20.53s1.05-21.84,31.76-29.18l2.09-.49"/><path class="cls-5" d="M198,2.43c-6.91,6.67-7.58,24.81-7.58,24.81s-4.83-17.19-22.79-17c0,0,7.32,5.6,7.48,17,0,0,.4-24.81,22.89-24.81"/><path class="cls-2" d="M182.84,27.24s1.4-15.18,13.69-24.39"/><rect class="cls-2" x="175.14" y="27.3" width="22.89" height="3.72"/><path class="cls-2" d="M198-1a2.21,2.21,0,0,0,0,4.42"/><path class="cls-2" d="M190.45,27.24s2.72-8.1,8.73-13.67"/><polyline class="cls-2" points="198.03 76.44 151.26 76.44 151.26 162.65"/><line class="cls-1" x1="110.52" y1="196.36" x2="110.52" y2="197.89"/><line class="cls-1" x1="110.52" y1="195.43" x2="110.52" y2="196.36"/><polyline class="cls-1" points="66.26 131.97 110.52 131.97 110.52 195.43"/><polyline class="cls-1" points="0 128.34 66.52 128.34 66.52 159.06"/><rect class="cls-1" x="28.77" y="138.06" width="7.87" height="12.18"/><rect class="cls-1" x="41.38" y="138.06" width="7.87" height="12.18"/><rect class="cls-1" x="53.45" y="138.06" width="7.87" height="12.18"/><rect class="cls-1" x="29.04" y="156.63" width="7.87" height="12.18"/><rect class="cls-1" x="41.66" y="156.63" width="7.87" height="12.18"/><rect class="cls-1" x="53.72" y="156.63" width="7.87" height="12.18"/><line class="cls-1" x1="108.22" y1="131.85" x2="148.4" y2="131.85"/><rect class="cls-1" x="113.58" y="139.96" width="15.14" height="21.55"/><line class="cls-1" x1="121.15" y1="139.96" x2="121.15" y2="161.51"/><line class="cls-1" x1="113.58" y1="151.4" x2="128.72" y2="151.4"/><rect class="cls-1" x="29.12" y="175.04" width="7.87" height="12.18"/><rect class="cls-1" x="41.74" y="175.04" width="7.87" height="12.18"/><rect class="cls-1" x="53.8" y="175.04" width="7.87" height="12.18"/><circle class="cls-1" cx="172.17" cy="191.4" r="6.5"/><rect class="cls-1" x="122.93" y="176.68" width="11.03" height="7.21"/><rect class="cls-1" x="159.26" y="176.49" width="9.41" height="7.21"/><line class="cls-1" x1="138.33" y1="192.64" x2="165.67" y2="192.64"/><rect class="cls-1" x="4.18" y="138.02" width="7.87" height="12.18"/><rect class="cls-1" x="16.25" y="138.02" width="7.87" height="12.18"/><rect class="cls-1" x="4.46" y="156.58" width="7.87" height="12.18"/><rect class="cls-1" x="16.52" y="156.58" width="7.87" height="12.18"/><rect class="cls-1" x="4.54" y="174.99" width="7.87" height="12.18"/><rect class="cls-1" x="16.6" y="174.99" width="7.87" height="12.18"/><rect class="cls-1" x="72.41" y="136.94" width="12.33" height="11.6"/><rect class="cls-1" x="72.41" y="152.21" width="12.33" height="11.6"/><rect class="cls-1" x="72.41" y="167.27" width="12.33" height="11.6"/><polyline class="cls-1" points="179.25 163.47 194.97 163.47 194.97 178.27 184.5 178.27"/><rect class="cls-1" x="72.41" y="182.28" width="12.33" height="11.6"/><rect class="cls-1" x="92.41" y="137.1" width="12.33" height="11.6"/><rect class="cls-1" x="92.41" y="152.37" width="12.33" height="11.6"/><rect class="cls-1" x="92.41" y="167.42" width="12.33" height="11.6"/><rect class="cls-1" x="92.41" y="182.44" width="12.33" height="11.6"/><rect class="cls-1" x="158.95" y="85.82" width="15.72" height="14.8"/><rect class="cls-1" x="158.95" y="105.29" width="15.72" height="14.8"/><rect class="cls-1" x="158.95" y="124.48" width="15.72" height="14.8"/><rect class="cls-1" x="158.95" y="143.63" width="15.72" height="14.8"/><rect class="cls-1" x="179.25" y="85.99" width="15.72" height="14.8"/><rect class="cls-1" x="179.25" y="105.46" width="15.72" height="14.8"/><rect class="cls-1" x="179.25" y="124.65" width="15.72" height="14.8"/><rect class="cls-1" x="179.25" y="143.8" width="15.72" height="14.8"/><line class="cls-1" x1="66.52" y1="159.06" x2="66.88" y2="199.19"/><line class="cls-1" x1="148.37" y1="130.68" x2="148.4" y2="163.7"/><line class="cls-1" x1="148.43" y1="192.64" x2="148.43" y2="198.78"/></svg>
