<svg id="Layer_2" data-name="Layer 2" xmlns="http://www.w3.org/2000/svg" viewBox="0 0 198.43 198.43"><defs><style>.cls-1,.cls-2,.cls-3{fill:none;}.cls-1,.cls-2,.cls-3,.cls-4,.cls-5{stroke:#231f20;}.cls-1,.cls-2,.cls-5{stroke-miterlimit:10;}.cls-1,.cls-3,.cls-4{stroke-width:2px;}.cls-3,.cls-4{stroke-linejoin:round;}.cls-4,.cls-5{fill:#fff;}</style></defs><line class="cls-1" x1="198.66" y1="193.36" x2="198.66" y2="175.14"/><polygon class="cls-1" points="198.66 175.14 198.66 180.8 196.44 180.8 197.82 175.14 198.66 175.14"/><path class="cls-1" d="M185.86,193.29l-5.87,0v-2.67a8,8,0,0,1,.44-2.14,2.53,2.53,0,0,1,1.55-1.69c4-1.1,7.38-1.45,8.34-5.95h8.34v12.56l-5.43,0h-.47"/><line class="cls-1" x1="186.99" y1="193.3" x2="186.38" y2="193.29"/><path class="cls-1" d="M185.86,193.31a3.75,3.75,0,1,1-.08.76,3.76,3.76,0,0,1,.08-.76"/><polyline class="cls-1" points="190.97 132.79 190.97 54.62 183.54 54.62 183.54 40.95 176.65 40.95 176.65 33.6 172.71 33.6 172.71 22.87 169.26 22.87 169.26 15.1"/><polyline class="cls-1" points="149.82 54.62 155.17 54.62 155.17 40.95 162.06 40.95 162.06 33.6 166 33.6 166 22.87 169.26 22.87"/><line class="cls-1" x1="147.74" y1="54.62" x2="149.82" y2="54.62"/><line class="cls-1" x1="147.74" y1="111.47" x2="147.74" y2="110.57"/><rect class="cls-2" x="159.08" y="44.19" width="3.48" height="3.48"/><rect class="cls-2" x="167.9" y="44.19" width="3.48" height="3.48"/><rect class="cls-2" x="176.72" y="44.19" width="3.48" height="3.48"/><rect class="cls-2" x="159.12" y="51.25" width="3.48" height="3.48"/><rect class="cls-2" x="167.94" y="51.25" width="3.48" height="3.48"/><rect class="cls-2" x="176.75" y="51.25" width="3.48" height="3.48"/><rect class="cls-2" x="167.9" y="37" width="3.48" height="3.48"/><rect class="cls-2" x="151.87" y="58.31" width="3.48" height="3.48"/><rect class="cls-2" x="159.08" y="58.31" width="3.48" height="3.48"/><rect class="cls-2" x="166.16" y="58.31" width="3.48" height="3.48"/><polyline class="cls-2" points="151.91 65.4 155.39 65.4 155.39 68.88 152.86 68.88"/><rect class="cls-2" x="159.12" y="65.4" width="3.48" height="3.48"/><rect class="cls-2" x="166.2" y="65.4" width="3.48" height="3.48"/><rect class="cls-2" x="169.57" y="58.31" width="3.48" height="3.48"/><rect class="cls-2" x="176.79" y="58.31" width="3.48" height="3.48"/><rect class="cls-2" x="183.86" y="58.31" width="3.48" height="3.48"/><rect class="cls-2" x="169.61" y="65.4" width="3.48" height="3.48"/><rect class="cls-2" x="176.82" y="65.4" width="3.48" height="3.48"/><rect class="cls-2" x="183.9" y="65.4" width="3.48" height="3.48"/><rect class="cls-2" x="159.02" y="72.48" width="3.48" height="3.48"/><rect class="cls-2" x="166.09" y="72.48" width="3.48" height="3.48"/><rect class="cls-2" x="159.12" y="79.76" width="3.48" height="3.48"/><rect class="cls-2" x="166.2" y="79.76" width="3.48" height="3.48"/><rect class="cls-2" x="169.5" y="72.48" width="3.48" height="3.48"/><rect class="cls-2" x="176.72" y="72.48" width="3.48" height="3.48"/><rect class="cls-2" x="183.8" y="72.48" width="3.48" height="3.48"/><rect class="cls-2" x="169.61" y="79.76" width="3.48" height="3.48"/><rect class="cls-2" x="176.83" y="79.76" width="3.48" height="3.48"/><rect class="cls-2" x="183.9" y="79.76" width="3.48" height="3.48"/><rect class="cls-2" x="151.63" y="86.96" width="3.48" height="3.48"/><rect class="cls-2" x="158.85" y="86.96" width="3.48" height="3.48"/><rect class="cls-2" x="165.92" y="86.96" width="3.48" height="3.48"/><rect class="cls-2" x="151.66" y="94.04" width="3.48" height="3.48"/><rect class="cls-2" x="158.88" y="94.04" width="3.48" height="3.48"/><rect class="cls-2" x="165.96" y="94.04" width="3.48" height="3.48"/><rect class="cls-2" x="169.33" y="86.96" width="3.48" height="3.48"/><rect class="cls-2" x="176.55" y="86.96" width="3.48" height="3.48"/><rect class="cls-2" x="183.62" y="86.96" width="3.48" height="3.48"/><rect class="cls-2" x="169.37" y="94.04" width="3.48" height="3.48"/><rect class="cls-2" x="176.58" y="94.04" width="3.48" height="3.48"/><rect class="cls-2" x="183.66" y="94.04" width="3.48" height="3.48"/><rect class="cls-2" x="151.56" y="101.13" width="3.48" height="3.48"/><rect class="cls-2" x="158.78" y="101.13" width="3.48" height="3.48"/><rect class="cls-2" x="165.85" y="101.13" width="3.48" height="3.48"/><rect class="cls-2" x="169.26" y="101.13" width="3.48" height="3.48"/><rect class="cls-2" x="176.48" y="101.13" width="3.48" height="3.48"/><rect class="cls-2" x="183.56" y="101.13" width="3.48" height="3.48"/><polyline class="cls-3" points="33.62 28.14 33.62 17.72 39.98 17.72 39.98 28.14"/><polyline class="cls-3" points="26.75 34.9 26.75 28.14 46.47 28.14 46.47 34.9"/><polyline class="cls-1" points="13.78 138.2 20.83 35.78 52.55 35.78 71.25 199.36"/><line class="cls-1" x1="13.71" y1="139.23" x2="13.78" y2="138.2"/><line class="cls-3" x1="16.85" y1="150.24" x2="16.55" y2="152.33"/><polyline class="cls-3" points="71.25 199.16 33.47 35.78 16.85 150.24"/><line class="cls-4" x1="36.8" y1="7.83" x2="36.8" y2="17.72"/><path class="cls-1" d="M26.75,199.36l-5.32-24.3-1.25-5.71L19,164.14l-1-4.51-1.28-5.86-.08-.37-1.29-5.87-1.13-5.19-.48-2.18-.11-.52a22.06,22.06,0,0,0-2.85-3.28L.57,144.3l-.42,40L0,199.16l25.07.18Z"/><polyline class="cls-1" points="110.38 136.33 133.82 136.33 133.82 185.7"/><polyline class="cls-1" points="147.74 111.47 130.29 111.47 133.82 115.24 130.29 111.47 190.97 111.47 187.4 115.24"/><polyline class="cls-1" points="187.4 184.99 187.4 115.24 133.82 115.24 133.82 136.33 116.31 136.33 116.31 79.76 159.12 79.76 158.78 111.47 147.74 111.47"/><line class="cls-1" x1="198.66" y1="132.79" x2="187.4" y2="132.79"/><rect class="cls-1" x="137.58" y="122.29" width="6.89" height="14.04"/><rect class="cls-1" x="148.41" y="122.29" width="6.89" height="14.04"/><rect class="cls-2" x="165.72" y="122.29" width="6.89" height="14.04"/><rect class="cls-2" x="176.55" y="122.29" width="6.89" height="14.04"/><rect class="cls-2" x="165.82" y="140" width="6.89" height="14.04"/><rect class="cls-2" x="176.65" y="140" width="6.89" height="14.04"/><rect class="cls-2" x="165.84" y="157.57" width="6.89" height="14.04"/><rect class="cls-2" x="176.67" y="157.57" width="6.89" height="14.04"/><polygon class="cls-1" points="137.7 129.31 140.04 129.31 155.3 129.31 155.3 136.33 139.99 136.33 137.58 136.33 137.7 129.31"/><line class="cls-1" x1="146.44" y1="129.31" x2="146.44" y2="136.33"/><line class="cls-1" x1="150.2" y1="129.31" x2="150.2" y2="136.33"/><line class="cls-1" x1="151.85" y1="129.45" x2="151.85" y2="136.47"/><line class="cls-1" x1="153.52" y1="129.31" x2="153.52" y2="136.33"/><line class="cls-1" x1="139.37" y1="129.38" x2="139.37" y2="136.4"/><line class="cls-1" x1="141.02" y1="129.52" x2="141.02" y2="136.54"/><line class="cls-1" x1="142.68" y1="129.38" x2="142.68" y2="136.4"/><rect class="cls-1" x="137.58" y="140.03" width="6.89" height="14.04"/><rect class="cls-1" x="148.41" y="140.03" width="6.89" height="14.04"/><polygon class="cls-1" points="137.7 147.05 140.04 147.05 155.3 147.05 155.3 154.07 139.99 154.07 137.58 154.07 137.7 147.05"/><line class="cls-1" x1="146.44" y1="147.05" x2="146.44" y2="154.07"/><line class="cls-1" x1="150.2" y1="147.05" x2="150.2" y2="154.07"/><line class="cls-1" x1="151.85" y1="147.19" x2="151.85" y2="154.21"/><line class="cls-1" x1="153.52" y1="147.05" x2="153.52" y2="154.07"/><line class="cls-1" x1="139.37" y1="147.12" x2="139.37" y2="154.14"/><line class="cls-1" x1="141.02" y1="147.26" x2="141.02" y2="154.27"/><line class="cls-1" x1="142.68" y1="147.12" x2="142.68" y2="154.14"/><rect class="cls-1" x="137.58" y="157.78" width="6.89" height="14.04"/><rect class="cls-1" x="148.41" y="157.78" width="6.89" height="14.04"/><polygon class="cls-1" points="137.7 164.79 140.04 164.79 155.3 164.79 155.3 171.81 139.99 171.81 137.58 171.81 137.7 164.79"/><line class="cls-1" x1="146.44" y1="164.79" x2="146.44" y2="171.81"/><line class="cls-1" x1="150.2" y1="164.79" x2="150.2" y2="171.81"/><line class="cls-1" x1="151.85" y1="164.93" x2="151.85" y2="171.95"/><line class="cls-1" x1="153.52" y1="164.79" x2="153.52" y2="171.81"/><line class="cls-1" x1="139.37" y1="164.86" x2="139.37" y2="171.88"/><line class="cls-1" x1="141.02" y1="165" x2="141.02" y2="172.02"/><line class="cls-1" x1="142.68" y1="164.86" x2="142.68" y2="171.88"/><line class="cls-1" x1="137.58" y1="171.81" x2="155.3" y2="154.07"/><line class="cls-1" x1="137.58" y1="154.07" x2="155.3" y2="136.33"/><line class="cls-1" x1="155.3" y1="171.81" x2="148.41" y2="177.97"/><line class="cls-1" x1="110.8" y1="140.03" x2="133.82" y2="140.03"/><polygon class="cls-2" points="123.4 143.57 130.29 143.57 130.29 147.12 123.4 147.02 123.4 143.57"/><polygon class="cls-2" points="112.86 143.57 119.75 143.57 119.75 147.12 112.86 147.02 112.86 143.57"/><rect class="cls-2" x="123.4" y="150.77" width="7.01" height="7.01"/><rect class="cls-2" x="112.8" y="150.6" width="7.01" height="7.01"/><rect class="cls-2" x="123.34" y="161.43" width="7.01" height="7.01"/><rect class="cls-2" x="123.34" y="172.08" width="7.01" height="7.01"/><polyline class="cls-1" points="187.4 136.54 190.96 136.47 198.66 136.33"/><line class="cls-1" x1="190.96" y1="180.8" x2="190.96" y2="136.47"/><polyline class="cls-1" points="198.66 140 194.57 140 194.57 157.57 198.66 157.57"/><polyline class="cls-1" points="198.66 164.94 194.57 164.94 194.57 180.8"/><polygon class="cls-1" points="123.4 65.4 116.31 79.76 159.12 79.76 151.91 65.4 123.4 65.4"/><polygon class="cls-1" points="123.4 58.31 123.4 65.4 151.91 65.4 151.87 58.31 123.4 58.31"/><line class="cls-1" x1="119.67" y1="79.83" x2="119.75" y2="136.54"/><line class="cls-1" x1="116.3" y1="83.24" x2="159.12" y2="83.24"/><line class="cls-1" x1="155.39" y1="79.76" x2="155.28" y2="111.02"/><polyline class="cls-2" points="151.56 111.02 151.63 86.96 123.4 86.96 123.4 136.33"/><line class="cls-2" x1="130.29" y1="136.33" x2="130.41" y2="86.96"/><line class="cls-2" x1="137.71" y1="111.47" x2="137.71" y2="86.96"/><line class="cls-2" x1="144.47" y1="111.02" x2="144.47" y2="86.96"/><line class="cls-2" x1="123.4" y1="90.44" x2="151.63" y2="90.44"/><line class="cls-2" x1="123.4" y1="94.04" x2="151.66" y2="94.04"/><line class="cls-2" x1="123.4" y1="97.59" x2="151.66" y2="97.52"/><line class="cls-2" x1="123.4" y1="101.07" x2="151.56" y2="101.07"/><line class="cls-2" x1="123.4" y1="104.55" x2="151.56" y2="104.55"/><line class="cls-5" x1="123.4" y1="107.63" x2="151.56" y2="107.63"/><line class="cls-2" x1="123.4" y1="111.02" x2="130.29" y2="111.02"/><line class="cls-2" x1="123.4" y1="114.76" x2="130.29" y2="114.76"/><line class="cls-2" x1="123.4" y1="118.64" x2="130.29" y2="118.64"/><line class="cls-2" x1="123.06" y1="122.29" x2="130.29" y2="122.29"/><line class="cls-2" x1="123.4" y1="125.93" x2="130.29" y2="125.93"/><line class="cls-2" x1="123.4" y1="129.31" x2="130.35" y2="129.31"/><line class="cls-2" x1="123.4" y1="133.03" x2="130.29" y2="133.03"/><polyline class="cls-1" points="91.34 180.8 92.72 175.14 94.72 175.14 95.81 180.8"/><circle class="cls-1" cx="84.45" cy="194.07" r="3.76"/><circle class="cls-1" cx="108.02" cy="194.07" r="3.76"/><line class="cls-1" x1="104.86" y1="193.52" x2="86.91" y2="193.41"/><path class="cls-1" d="M82,193.38l-7.12,0,.7-3s.15-3.33,2-3.83c4-1.1,7.37-1.45,8.34-5.95H101l3.38,6.35h10s1.61.56,2.35,6.66l-6.11,0"/><polyline class="cls-1" points="144.47 180.8 145.85 175.14 147.86 175.14 148.94 180.8"/><line class="cls-1" x1="157.77" y1="193.43" x2="140.09" y2="193.33"/><line class="cls-1" x1="158.58" y1="193.44" x2="158.35" y2="193.43"/><path class="cls-1" d="M135.26,193.3l-7.24,0v-2.68s.15-3.32,2-3.83c4-1.1,7.37-1.45,8.34-5.95h15.11l3.38,6.35h10s1.6.56,3.05,6.35l-5.5,0"/><circle class="cls-1" cx="137.58" cy="194.07" r="3.76"/><circle class="cls-1" cx="161.15" cy="194.07" r="3.76"/><polyline class="cls-1" points="88.39 120.19 65.95 120.19 68.73 123.16 65.95 120.19 113.75 120.19 110.94 123.16"/><polyline class="cls-1" points="110.38 187.08 110.38 122.85 69.31 122.85 69.31 143.58"/><line class="cls-1" x1="109.73" y1="191.67" x2="109.73" y2="191.66"/><line class="cls-1" x1="120.99" y1="140.03" x2="109.73" y2="140.03"/><rect class="cls-2" x="86.88" y="129.53" width="6.89" height="14.04"/><rect class="cls-2" x="98.31" y="129.53" width="6.89" height="14.04"/><line class="cls-1" x1="69.31" y1="143.58" x2="69.87" y2="187.08"/><rect class="cls-2" x="74.89" y="129.38" width="6.89" height="14.04"/><rect class="cls-2" x="86.88" y="146.93" width="6.89" height="14.04"/><rect class="cls-2" x="98.31" y="146.93" width="6.89" height="14.04"/><rect class="cls-2" x="74.89" y="146.78" width="6.89" height="14.04"/><polyline class="cls-2" points="92.96 177.97 86.68 177.97 86.68 163.93 93.58 163.93 93.58 176.37"/><rect class="cls-2" x="98.11" y="163.93" width="6.89" height="14.04"/><rect class="cls-2" x="74.69" y="163.78" width="6.89" height="14.04"/><rect class="cls-2" x="112.8" y="161.08" width="7.01" height="7.01"/><rect class="cls-2" x="112.8" y="172.08" width="7.01" height="7.01"/><line class="cls-1" x1="147.74" y1="53.62" x2="147.74" y2="57.56"/></svg>
