<svg xmlns="http://www.w3.org/2000/svg" viewBox="0 0 258.83 129.32"><defs><style>.cls-1{fill:#5f8fd2;}.cls-2{font-size:36px;fill:#5c0c5f;font-family:LobsterTwo-BoldItalic, Lobster Two;font-weight:700;font-style:italic;}</style></defs><g id="Layer_2" data-name="Layer 2"><g id="Layer_1-2" data-name="Layer 1"><path class="cls-1" d="M1.74,75.72A12.2,12.2,0,0,0,1.08,84a13.13,13.13,0,0,0,4.56,6.85,16.57,16.57,0,0,0,7.61,3.26,26.31,26.31,0,0,0,8.4,0,50.62,50.62,0,0,0,15.92-5.74,84.89,84.89,0,0,0,7.31-4.41c1.18-.8,2.37-1.62,3.5-2.45s2.24-1.74,3.37-2.64a230,230,0,0,1,28.43-20,166.78,166.78,0,0,1,31.74-14.52,142.74,142.74,0,0,1,34.34-7,132.68,132.68,0,0,1,17.61-.08,128,128,0,0,1,17.44,2.45,147.18,147.18,0,0,1,16.91,4.74,151.44,151.44,0,0,1,16.13,6.79,162.72,162.72,0,0,1,15.23,8.5c4.87,3.16,9.64,6.44,14.19,10a.26.26,0,0,1,0,.35.25.25,0,0,1-.33.06A233.55,233.55,0,0,0,212.9,54.4a161,161,0,0,0-32.57-9.84,145.41,145.41,0,0,0-33.77-2.37,134.27,134.27,0,0,0-33.43,5.87A163.61,163.61,0,0,0,81.78,61.59c-5,2.78-9.85,5.81-14.6,9s-9.34,6.63-13.93,10.12c-1.16.86-2.3,1.74-3.51,2.59s-2.43,1.62-3.66,2.4A85,85,0,0,1,38.47,90a52.23,52.23,0,0,1-16.62,5.46,27.49,27.49,0,0,1-8.82-.2,17.74,17.74,0,0,1-8-3.71A14,14,0,0,1,.36,84.14a12.79,12.79,0,0,1,.93-8.63.25.25,0,0,1,.34-.12A.25.25,0,0,1,1.74,75.72Z"/><text class="cls-2" transform="translate(29.87 92.43) rotate(-24.62) scale(1.22 1)">S</text><text class="cls-2" transform="translate(53.61 80.79) rotate(-36.17) scale(1.22 1)">a</text><text class="cls-2" transform="translate(72.46 66.36) rotate(-37.5) scale(1.22 1)">v</text><text class="cls-2" transform="translate(86.42 55.59) rotate(-32.21) scale(1.22 1)">e</text><text class="cls-2" transform="matrix(1.08, -0.56, 0.46, 0.89, 100.79, 46.69)"> </text><text class="cls-2" transform="translate(108.36 42.32) rotate(-20.83) scale(1.22 1)">y</text><text class="cls-2" transform="translate(127.28 35.07) rotate(-10.76) scale(1.22 1)">o</text><text class="cls-2" transform="translate(145.03 31.43) rotate(0.41) scale(1.22 1)">u</text><text class="cls-2" transform="translate(166.15 31.76) rotate(10.44) scale(1.22 1)">r</text><text class="cls-2" transform="matrix(0.94, -0.77, 0.63, 0.77, 96.85, 87.05)">T</text><text class="cls-2" transform="matrix(1.08, -0.56, 0.46, 0.89, 113.38, 73.25)">r</text><text class="cls-2" transform="matrix(1.2, -0.25, 0.2, 0.98, 126.39, 65.83)">a</text><text class="cls-2" transform="matrix(1.22, 0.05, -0.04, 1, 147.62, 61.71)">v</text><text class="cls-2" transform="translate(164.83 62.43) rotate(11.08) scale(1.22 1)">e</text><text class="cls-2" transform="translate(180.76 65.67) rotate(16.6) scale(1.22 1)">l</text><path class="cls-1" d="M258.23,86.19c-2.29,3.2-11,.89-14.15-1.41l-4.52-3.26L211.47,93.34l-6.27-4.53L213.48,83l-2-1.45,3.64-5,3.75,2.71L227.68,73,215.28,64a18.17,18.17,0,0,1-5.54-7.88L206,57.71l-3-2.18L209.44,51l2.26-7.52,3,2.17-.31,4a18.19,18.19,0,0,1,9.22,2.77l12.4,9L239.15,51l-3.75-2.7,3.62-5,2,1.47,2.93-9.7,6.27,4.51L247.9,70l4.51,3.26C255.61,75.51,260.54,83,258.23,86.19Z"/></g></g></svg>