<svg xmlns="http://www.w3.org/2000/svg" viewBox="0 0 25.39 20.05"><defs><style>.cls-1{fill:none;stroke:#243d98;stroke-miterlimit:10;stroke-width:2px;}</style></defs><g id="Layer_2" data-name="Layer 2"><g id="Layer_2-2" data-name="Layer 2"><path class="cls-1" d="M24.39,15.23A3.82,3.82,0,0,1,21,19a3.59,3.59,0,0,1-.47,0H5.18a4.18,4.18,0,1,1,0-8.35,4,4,0,0,1,1,.14A3.24,3.24,0,0,1,6,9.67,3.34,3.34,0,0,1,9.35,6.33,4.33,4.33,0,0,0,13.68,2a4.62,4.62,0,0,0-.12-1,4.29,4.29,0,0,1,4.13,4.28,2.09,2.09,0,0,1,0,.25,4.17,4.17,0,0,1,3,5.83A3.82,3.82,0,0,1,24.39,15.23Z"/></g></g></svg>