<svg xmlns="http://www.w3.org/2000/svg" viewBox="0 0 23.39 18"><defs><style>.cls-1{fill:#243d98;}</style></defs><g id="Layer_2" data-name="Layer 2"><g id="Layer_2-2" data-name="Layer 2"><path class="cls-1" d="M23.39,14.18A3.82,3.82,0,0,1,20,18a3.59,3.59,0,0,1-.47,0H4.18a4.18,4.18,0,1,1,0-8.35,4,4,0,0,1,1,.14A3.24,3.24,0,0,1,5,8.62,3.34,3.34,0,0,1,8.35,5.28,4.33,4.33,0,0,0,12.68,1a4.62,4.62,0,0,0-.12-1,4.29,4.29,0,0,1,4.13,4.28,2.09,2.09,0,0,1,0,.25,4.17,4.17,0,0,1,3,5.83A3.82,3.82,0,0,1,23.39,14.18Z"/></g></g></svg>