<?xml version="1.0" encoding="utf-8"?>
<!-- Generator: Adobe Illustrator 24.3.0, SVG Export Plug-In . SVG Version: 6.00 Build 0)  -->
<svg version="1.1" id="Layer_1" xmlns="http://www.w3.org/2000/svg" xmlns:xlink="http://www.w3.org/1999/xlink" x="0px" y="0px"
	 viewBox="0 0 1894 5012.7" style="enable-background:new 0 0 1894 5012.7;" xml:space="preserve">
<style type="text/css">
	.st0{fill:#F7D1E3;}
</style>
<g id="Layer_2_1_">
	<g id="Layer_1-2">
		<path class="st0" d="M739.9,759.5c0,0-77.5-26.1-43.2,52.4s138.7,91.3,110.3,27.3S739.9,759.5,739.9,759.5z"/>
		<path class="st0" d="M1620.7,2898.3c-62.6,2.9-197-100.9-281.4-38.7s-133.5,166.5-358.1,77.1S655.8,2999,655.8,2999
			s-351.5,227-355.2,39.8C297.8,2895.6,95,2831.3,0,2809v58.5c9.9,5.9,21.1,12.3,33.8,19.3c159.6,87.4,114.1,194.6,215.9,215.7
			s173.4,96.7,332.3,0s130.6-70.2,366.2-33.9s357-82.7,500.2-131.8c108.9-37.3,340.6,51.7,445.6,96.6v-219.6
			C1816.7,2919,1678.9,2895.7,1620.7,2898.3z"/>
		<path class="st0" d="M481.6,861.3c11-231.3,225.2-137,417.2-323.3c139.4-135.2,105.8-335-125.1-538H0v1094.8
			C184.2,1117.4,473.7,1027.4,481.6,861.3z"/>
		<path class="st0" d="M1674.2,2c0,0-51.8,242.1-211.4,318.6S971.5,563.9,1184,732.5s372,52.6,431.5,171
			c45.3,90,179.9,113.9,278.5,107.6V2C1754.9,8.7,1674.2,2,1674.2,2z"/>
		<path class="st0" d="M1478.3,1561.4c43.4,207.2-389.9,25-516.2-46.1s-221.5-80.4-358-57.4s-205.8,202.1-355.8,14.5
			C155.8,1356.7,59.9,1335.3,0,1336v85.5c58.1-16.2,121.3-18,151.6,11.1c60.3,57.8,9.8,83.2,163.4,202.8s339.8-105.1,440.7-112.2
			s213.4,87.2,430.8,190s434-9.4,434.7-123c0.5-90.9,195-121.1,272.8-129.5v-228.9C1783.1,1238.9,1440.3,1380.1,1478.3,1561.4z"/>
		<path class="st0" d="M1351.5,2203.6c-195.1-16.6-262.3,83.4-329.7,118.9s-224.6,28.1-396.7-118.9s-271-138.9-451.2,42.8
			c-80.1,80.8-136.2,74.8-173.8,43.3v129.9c68.6-20.6,146.8-51.9,201.4-97.2c118.6-98.2,176.7-125.5,305.8-102.6
			s292.4,303.1,531,186s233.7-220.3,457.3-135.3c150,57,309.7,65.5,398.5,64.9v-222.3c-17.7,16.3-39,35.5-64.5,57.9
			C1732.1,2256.3,1546.6,2220.2,1351.5,2203.6z"/>
	</g>
</g>
<g>
	<path class="st0" d="M403.9,4474.5c11-231.3,225.2-137,417.2-323.3c192-186.3,55.7-495.2-472.7-766.1
		c-165.5-84.9-275.5-76-348.4-23.7v1349.8C178.2,4705.5,397.1,4618.7,403.9,4474.5z"/>
	<path class="st0" d="M1593.4,3656.8c-62.5,64-48.7,214.3-208.4,290.9c-159.6,76.6-491.2,243.3-278.7,411.8s372,52.6,431.5,171
		c59.3,118,272,122.4,356.2,94.1v-1011C1737.3,3594.5,1657.9,3590.8,1593.4,3656.8z"/>
</g>
</svg>
